<svg xmlns="http://www.w3.org/2000/svg" viewBox="0 0 64 64"><path fill="#4285F4" d="M62 33c0-2.2-.2-4.3-.6-6.3H32v12h16.8c-.7 3.9-2.9 7.2-6.2 9.4v7.8h10.1C58.6 50.5 62 42.5 62 33z"/><path fill="#34A853" d="M32 63c8.4 0 15.5-2.8 20.7-7.6l-10.1-7.8c-2.8 1.9-6.4 3-10.6 3-8.1 0-14.9-5.5-17.4-12.9H4.2v8.1C9.4 56 19.9 63 32 63z"/><path fill="#FBBC05" d="M14.6 37.7c-.6-1.9-1-3.9-1-6s.4-4.1 1-6v-8.1H4.2A31 31 0 0 0 1 31.7c0 5 1.2 9.8 3.2 14.1l10.4-8.1z"/><path fill="#EA4335" d="M32 12.8c4.6 0 8.7 1.6 11.9 4.7l8.9-8.9C47.4 3.6 40.4.5 32 .5 19.9.5 9.4 7.5 4.2 17.6l10.4 8.1c2.5-7.4 9.3-12.9 17.4-12.9z"/></svg>